<?xml version="1.0" encoding="utf-8"?>
<!-- Generator: Adobe Illustrator 24.3.0, SVG Export Plug-In . SVG Version: 6.00 Build 0)  -->
<svg version="1.1" id="Layer_1" xmlns="http://www.w3.org/2000/svg" xmlns:xlink="http://www.w3.org/1999/xlink" x="0px" y="0px"
	 viewBox="0 0 79 90.6" style="enable-background:new 0 0 79 90.6;" xml:space="preserve">
<style type="text/css">
	.st0{fill:#545554;}
</style>
<g>
	<g>
		<g>
			<path class="st0" d="M6.77,89.6c-0.55,0-1-0.45-1-1V2c0-0.55,0.45-1,1-1h25.41c0.55,0,1,0.45,1,1v86.6c0,0.55-0.45,1-1,1H6.77z"
				/>
			<path class="st0" d="M32.18,2v86.6H6.77V2H32.18 M32.18,0H6.77c-1.1,0-2,0.9-2,2v86.6c0,1.1,0.9,2,2,2h25.41c1.1,0,2-0.9,2-2V2
				C34.18,0.9,33.29,0,32.18,0L32.18,0z"/>
		</g>
	</g>
	<g>
		<g>
			<path class="st0" d="M46.82,89.6c-0.55,0-1-0.45-1-1V2c0-0.55,0.45-1,1-1h25.41c0.55,0,1,0.45,1,1v86.6c0,0.55-0.45,1-1,1H46.82z
				"/>
			<path class="st0" d="M72.23,2v86.6H46.82V2H72.23 M72.23,0H46.82c-1.1,0-2,0.9-2,2v86.6c0,1.1,0.9,2,2,2h25.41c1.1,0,2-0.9,2-2V2
				C74.23,0.9,73.33,0,72.23,0L72.23,0z"/>
		</g>
	</g>
</g>
</svg>
