<?xml version="1.0" encoding="utf-8"?>
<!-- Generator: Adobe Illustrator 24.3.0, SVG Export Plug-In . SVG Version: 6.00 Build 0)  -->
<svg version="1.1" id="Layer_1" xmlns="http://www.w3.org/2000/svg" xmlns:xlink="http://www.w3.org/1999/xlink" x="0px" y="0px"
	 viewBox="0 0 79 90.6" style="enable-background:new 0 0 79 90.6;" xml:space="preserve">
<style type="text/css">
	.st0{fill:#545554;}
</style>
<g>
	<path class="st0" d="M2,89.6c-0.17,0-0.35-0.04-0.5-0.13C1.19,89.29,1,88.96,1,88.6V2c0-0.36,0.19-0.69,0.5-0.87
		C1.65,1.04,1.83,1,2,1s0.35,0.04,0.5,0.13l75,43.3c0.31,0.18,0.5,0.51,0.5,0.87s-0.19,0.69-0.5,0.87l-75,43.3
		C2.35,89.56,2.17,89.6,2,89.6z"/>
	<path class="st0" d="M2,2l75,43.3L2,88.6V2 M2,0C1.65,0,1.31,0.09,1,0.27C0.38,0.63,0,1.29,0,2v86.6c0,0.71,0.38,1.37,1,1.73
		c0.31,0.18,0.65,0.27,1,0.27s0.69-0.09,1-0.27l75-43.3c0.62-0.36,1-1.02,1-1.73s-0.38-1.37-1-1.73L3,0.27C2.69,0.09,2.35,0,2,0L2,0
		z"/>
</g>
</svg>
